<?xml version="1.0" encoding="utf-8"?>
<!-- Generator: Adobe Illustrator 19.0.0, SVG Export Plug-In . SVG Version: 6.00 Build 0)  -->
<svg version="1.1" id="Layer_1" xmlns="http://www.w3.org/2000/svg" xmlns:xlink="http://www.w3.org/1999/xlink" x="0px" y="0px"
	 viewBox="62 314.8 219 212" style="enable-background:new 62 314.8 219 212;" xml:space="preserve">
<style type="text/css">
	.st0{fill:#6E2A80;}
	.st1{fill:#D34798;}
</style>
<g>
	<rect x="149.4" y="487.3" class="st0" width="13.4" height="13.4"/>
	<rect x="168.2" y="487.3" class="st1" width="13.4" height="13.4"/>
	<rect x="149.4" y="505.6" class="st1" width="13.4" height="13.4"/>
	<rect x="168.2" y="505.6" class="st0" width="13.4" height="13.4"/>
	<polygon class="st0" points="166.9,467 224.7,505.5 262.9,505.5 166.9,440.9 70.9,505.9 109.1,505.9 	"/>
	<polygon class="st1" points="215.4,412.4 215.4,375.5 202.2,367.6 189.1,375.5 189.1,446.3 234.4,477.2 234.4,425.5 	"/>
	<polygon class="st1" points="118,376.4 118,413.3 99,426.4 99,479 144.3,448 144.3,376.4 131.1,368.5 	"/>
	<g>
		<polygon class="st0" points="147.7,393.8 147.7,416.5 166.7,407.8 185.9,415.5 185.9,392.6 166.9,385 		"/>
		<polygon class="st0" points="147.7,365.4 147.7,388.1 166.7,379.4 185.9,387.1 185.9,364.2 166.9,356.6 		"/>
		<polygon class="st0" points="147.7,422.2 147.7,445.7 163,435.2 166.9,432.6 170.8,435.2 185.9,445.5 185.9,421.1 166.9,413.5 		
			"/>
		<polygon class="st0" points="166.8,322.8 147.7,335.9 147.7,359.7 166.7,351 185.9,358.7 185.9,335.9 		"/>
	</g>
</g>
</svg>
