<?xml version="1.0" encoding="utf-8"?>
<!-- Generator: Adobe Illustrator 19.0.0, SVG Export Plug-In . SVG Version: 6.00 Build 0)  -->
<svg version="1.1" id="Layer_1" xmlns="http://www.w3.org/2000/svg" xmlns:xlink="http://www.w3.org/1999/xlink" x="0px" y="0px"
	 viewBox="25.3 318.4 522 207.3" style="enable-background:new 25.3 318.4 522 207.3;" xml:space="preserve">
<style type="text/css">
	.st0{fill:#60297F;}
	.st1{fill:#D34798;}
</style>
<g>
	<g>
		<path class="st0" d="M235.1,351.6h9.2l28,65.4l28.5-65.4h9.2l-36.8,84.6h-1.8L235.1,351.6z"/>
		<path class="st0" d="M362.5,415.5l6.8,3.6c-2.2,4.4-4.8,7.9-7.7,10.6c-2.9,2.7-6.2,4.7-9.8,6.1c-3.6,1.4-7.8,2.1-12.4,2.1
			c-10.2,0-18.2-3.3-23.9-10c-5.8-6.7-8.6-14.2-8.6-22.7c0-7.9,2.4-15,7.3-21.2c6.2-7.9,14.4-11.9,24.8-11.9
			c10.7,0,19.2,4,25.6,12.1c4.5,5.7,6.8,12.8,6.9,21.4h-56.3c0.2,7.3,2.5,13.2,7,17.9c4.5,4.6,10,7,16.6,7c3.2,0,6.3-0.6,9.3-1.7
			c3-1.1,5.6-2.6,7.7-4.4C357.8,422.5,360.1,419.6,362.5,415.5z M362.5,398.6c-1.1-4.3-2.6-7.7-4.7-10.3c-2-2.6-4.8-4.6-8.1-6.2
			c-3.4-1.6-6.9-2.4-10.7-2.4c-6.1,0-11.4,2-15.8,5.9c-3.2,2.9-5.7,7.2-7.3,12.9H362.5z"/>
		<path class="st0" d="M386.1,436.2l12.1-84.6h1.4l34.4,69.4l34.1-69.4h1.4l12.2,84.6h-8.3l-8.4-60.5L435,436.2h-2.2l-30.3-61
			l-8.3,61H386.1z"/>
		<path class="st0" d="M495.3,351.6h48.5v8.3h-40v26.5h39.7v8.3h-39.7V428h39.7v8.3h-48.1V351.6z"/>
	</g>
	<g>
		<path class="st1" d="M235.1,479.2h2.4l7.4,17.3l7.6-17.3h2.4l-9.8,22.4h-0.5L235.1,479.2z"/>
		<path class="st1" d="M269.2,496.2l1.8,0.9c-0.6,1.2-1.3,2.1-2,2.8c-0.8,0.7-1.6,1.3-2.6,1.6c-1,0.4-2.1,0.6-3.3,0.6
			c-2.7,0-4.8-0.9-6.4-2.7c-1.5-1.8-2.3-3.8-2.3-6c0-2.1,0.6-4,1.9-5.6c1.6-2.1,3.8-3.1,6.6-3.1c2.8,0,5.1,1.1,6.8,3.2
			c1.2,1.5,1.8,3.4,1.8,5.7h-14.9c0,1.9,0.7,3.5,1.8,4.7c1.2,1.2,2.7,1.8,4.4,1.8c0.8,0,1.7-0.1,2.5-0.4c0.8-0.3,1.5-0.7,2-1.2
			C267.9,498,268.5,497.2,269.2,496.2z M269.2,491.7c-0.3-1.1-0.7-2-1.2-2.7c-0.5-0.7-1.3-1.2-2.2-1.7c-0.9-0.4-1.8-0.6-2.8-0.6
			c-1.6,0-3,0.5-4.2,1.6c-0.9,0.8-1.5,1.9-1.9,3.4H269.2z"/>
		<path class="st1" d="M275.5,485.1h2.2v2.4c0.7-1,1.3-1.7,2.1-2.1c0.7-0.5,1.5-0.7,2.3-0.7c0.6,0,1.2,0.2,1.9,0.6l-1.1,1.8
			c-0.4-0.2-0.8-0.3-1.1-0.3c-0.7,0-1.4,0.3-2.1,0.9c-0.7,0.6-1.2,1.5-1.5,2.7c-0.3,0.9-0.4,2.9-0.4,5.7v5.6h-2.2V485.1z"/>
		<path class="st1" d="M285.9,501.7l3.2-22.4h0.4l9.1,18.4l9-18.4h0.4l3.2,22.4h-2.2l-2.2-16l-7.9,16h-0.6l-8-16.2l-2.2,16.2H285.9z
			"/>
		<path class="st1" d="M316.1,478.2c0.5,0,0.9,0.2,1.2,0.5c0.3,0.3,0.5,0.8,0.5,1.3c0,0.5-0.2,0.9-0.5,1.2c-0.3,0.3-0.8,0.5-1.2,0.5
			c-0.5,0-0.9-0.2-1.2-0.5c-0.3-0.3-0.5-0.8-0.5-1.2c0-0.5,0.2-0.9,0.5-1.3C315.2,478.4,315.6,478.2,316.1,478.2z M315,485.1h2.1
			v16.6H315V485.1z"/>
		<path class="st1" d="M330.2,486.9l-1.4,1.4c-1.1-1.1-2.3-1.7-3.3-1.7c-0.7,0-1.3,0.2-1.8,0.7c-0.5,0.5-0.7,1-0.7,1.6
			c0,0.5,0.2,1.1,0.6,1.5c0.4,0.5,1.3,1.1,2.6,1.8c1.6,0.8,2.7,1.6,3.2,2.4c0.6,0.8,0.8,1.6,0.8,2.6c0,1.4-0.5,2.5-1.4,3.5
			c-1,0.9-2.2,1.4-3.6,1.4c-1,0-1.9-0.2-2.7-0.6c-0.9-0.4-1.6-1-2.2-1.7l1.3-1.5c1.1,1.2,2.2,1.8,3.5,1.8c0.9,0,1.6-0.3,2.2-0.8
			c0.6-0.5,0.9-1.2,0.9-1.9c0-0.6-0.2-1.2-0.6-1.6c-0.4-0.5-1.3-1.1-2.7-1.8c-1.5-0.8-2.5-1.5-3.1-2.3c-0.5-0.8-0.8-1.6-0.8-2.6
			c0-1.3,0.4-2.3,1.3-3.1c0.9-0.8,1.9-1.3,3.3-1.3C327.1,484.6,328.6,485.4,330.2,486.9z"/>
		<path class="st1" d="M335,479.2h12.9v2.2h-10.6v7h10.5v2.2h-10.5v8.8h10.5v2.2H335V479.2z"/>
		<path class="st1" d="M350.4,485.1h2.6l4.4,6.1l4.4-6.1h2.6l-5.6,7.8l6.4,8.8h-2.6l-5.1-7l-5,7h-2.5l6.3-8.7L350.4,485.1z"/>
		<path class="st1" d="M367.3,485.1h2.1v3.1c0.8-1.2,1.8-2,2.9-2.6c1.1-0.6,2.3-0.9,3.7-0.9c2.4,0,4.4,0.8,6.1,2.5
			c1.7,1.7,2.5,3.7,2.5,6.1c0,2.4-0.8,4.5-2.5,6.2c-1.7,1.7-3.7,2.6-6,2.6c-1.3,0-2.5-0.3-3.6-0.8c-1.1-0.5-2.1-1.4-3-2.5v8.9h-2.1
			V485.1z M375.9,486.7c-1.8,0-3.4,0.6-4.7,1.9c-1.3,1.3-1.9,2.9-1.9,4.8c0,1.3,0.3,2.4,0.8,3.4c0.6,1,1.4,1.8,2.4,2.4
			c1.1,0.6,2.2,0.9,3.3,0.9c1.2,0,2.2-0.3,3.2-0.9c1-0.6,1.8-1.4,2.4-2.5c0.6-1.1,0.9-2.2,0.9-3.4c0-1.2-0.3-2.3-0.9-3.4
			c-0.6-1.1-1.4-1.9-2.4-2.5C378.2,487,377.1,486.7,375.9,486.7z"/>
		<path class="st1" d="M402.3,496.2l1.8,0.9c-0.6,1.2-1.3,2.1-2,2.8c-0.8,0.7-1.6,1.3-2.6,1.6c-1,0.4-2.1,0.6-3.3,0.6
			c-2.7,0-4.8-0.9-6.4-2.7c-1.5-1.8-2.3-3.8-2.3-6c0-2.1,0.6-4,1.9-5.6c1.6-2.1,3.8-3.1,6.6-3.1c2.8,0,5.1,1.1,6.8,3.2
			c1.2,1.5,1.8,3.4,1.8,5.7h-14.9c0,1.9,0.7,3.5,1.8,4.7c1.2,1.2,2.7,1.8,4.4,1.8c0.8,0,1.7-0.1,2.5-0.4c0.8-0.3,1.5-0.7,2-1.2
			C401,498,401.6,497.2,402.3,496.2z M402.3,491.7c-0.3-1.1-0.7-2-1.2-2.7c-0.5-0.7-1.3-1.2-2.2-1.7c-0.9-0.4-1.8-0.6-2.8-0.6
			c-1.6,0-3,0.5-4.2,1.6c-0.9,0.8-1.5,1.9-1.9,3.4H402.3z"/>
		<path class="st1" d="M407.8,485.1h2.1v3c0.9-1.1,1.8-2,2.8-2.6c1-0.6,2.2-0.8,3.4-0.8c1.2,0,2.3,0.3,3.3,0.9
			c1,0.6,1.7,1.5,2.1,2.5c0.5,1.1,0.7,2.7,0.7,5v8.5h-2.1v-7.9c0-1.9-0.1-3.2-0.2-3.8c-0.2-1.1-0.7-1.9-1.4-2.5
			c-0.7-0.6-1.6-0.8-2.7-0.8c-1.3,0-2.4,0.4-3.5,1.3c-1,0.9-1.7,1.9-2,3.2c-0.2,0.8-0.3,2.3-0.3,4.5v6.1h-2.1V485.1z"/>
		<path class="st1" d="M435.2,486.9l-1.4,1.4c-1.1-1.1-2.3-1.7-3.4-1.7c-0.7,0-1.3,0.2-1.8,0.7c-0.5,0.5-0.7,1-0.7,1.6
			c0,0.5,0.2,1.1,0.6,1.5c0.4,0.5,1.3,1.1,2.6,1.8c1.6,0.8,2.7,1.6,3.2,2.4c0.6,0.8,0.8,1.6,0.8,2.6c0,1.4-0.5,2.5-1.4,3.5
			c-1,0.9-2.2,1.4-3.6,1.4c-1,0-1.9-0.2-2.7-0.6c-0.9-0.4-1.6-1-2.2-1.7l1.3-1.5c1.1,1.2,2.2,1.8,3.5,1.8c0.9,0,1.6-0.3,2.2-0.8
			c0.6-0.5,0.9-1.2,0.9-1.9c0-0.6-0.2-1.2-0.6-1.6c-0.4-0.5-1.3-1.1-2.7-1.8c-1.5-0.8-2.5-1.5-3.1-2.3c-0.5-0.8-0.8-1.6-0.8-2.6
			c0-1.3,0.4-2.3,1.3-3.1c0.9-0.8,1.9-1.3,3.3-1.3C432.1,484.6,433.7,485.4,435.2,486.9z"/>
		<path class="st1" d="M454.6,485.1v16.6h-2.1v-2.9c-0.9,1.1-1.9,1.9-3,2.5c-1.1,0.6-2.3,0.8-3.7,0.8c-2.3,0-4.4-0.9-6-2.6
			c-1.7-1.7-2.5-3.8-2.5-6.2c0-2.4,0.8-4.4,2.5-6.1c1.7-1.7,3.7-2.5,6.1-2.5c1.4,0,2.6,0.3,3.7,0.9c1.1,0.6,2.1,1.4,2.9,2.6v-3.1
			H454.6z M446.1,486.7c-1.2,0-2.3,0.3-3.3,0.9c-1,0.6-1.8,1.4-2.4,2.5c-0.6,1.1-0.9,2.2-0.9,3.4c0,1.2,0.3,2.3,0.9,3.4
			c0.6,1.1,1.4,1.9,2.4,2.5c1,0.6,2.1,0.9,3.3,0.9c1.2,0,2.3-0.3,3.3-0.9c1-0.6,1.8-1.4,2.4-2.4c0.6-1,0.8-2.1,0.8-3.4
			c0-1.9-0.6-3.5-1.9-4.8C449.5,487.3,447.9,486.7,446.1,486.7z"/>
		<path class="st1" d="M468,486.9l-1.4,1.4c-1.1-1.1-2.3-1.7-3.4-1.7c-0.7,0-1.3,0.2-1.8,0.7c-0.5,0.5-0.7,1-0.7,1.6
			c0,0.5,0.2,1.1,0.6,1.5c0.4,0.5,1.3,1.1,2.6,1.8c1.6,0.8,2.7,1.6,3.2,2.4c0.6,0.8,0.8,1.6,0.8,2.6c0,1.4-0.5,2.5-1.4,3.5
			c-1,0.9-2.2,1.4-3.6,1.4c-1,0-1.9-0.2-2.7-0.6c-0.9-0.4-1.6-1-2.2-1.7l1.3-1.5c1.1,1.2,2.2,1.8,3.5,1.8c0.9,0,1.6-0.3,2.2-0.8
			c0.6-0.5,0.9-1.2,0.9-1.9c0-0.6-0.2-1.2-0.6-1.6c-0.4-0.5-1.3-1.1-2.7-1.8c-1.5-0.8-2.5-1.5-3.1-2.3c-0.5-0.8-0.8-1.6-0.8-2.6
			c0-1.3,0.4-2.3,1.3-3.1c0.9-0.8,1.9-1.3,3.3-1.3C465,484.6,466.5,485.4,468,486.9z"/>
		<path class="st1" d="M473.8,497.3c0.7,0,1.2,0.2,1.7,0.7c0.5,0.5,0.7,1,0.7,1.7c0,0.7-0.2,1.2-0.7,1.7c-0.5,0.5-1,0.7-1.7,0.7
			c-0.7,0-1.2-0.2-1.7-0.7c-0.5-0.5-0.7-1-0.7-1.7c0-0.7,0.2-1.2,0.7-1.7C472.6,497.6,473.2,497.3,473.8,497.3z"/>
		<path class="st1" d="M495.8,488.4l-3.5,1.9c-0.7-0.7-1.3-1.2-1.9-1.4c-0.6-0.3-1.4-0.4-2.2-0.4c-1.6,0-2.8,0.5-3.8,1.4
			c-1,0.9-1.4,2.1-1.4,3.6c0,1.4,0.5,2.6,1.4,3.5c0.9,0.9,2.1,1.3,3.7,1.3c1.9,0,3.3-0.6,4.4-1.9l3.3,2.2c-1.8,2.3-4.3,3.5-7.5,3.5
			c-2.9,0-5.2-0.9-6.9-2.6c-1.7-1.7-2.5-3.8-2.5-6.1c0-1.6,0.4-3.1,1.2-4.4c0.8-1.4,1.9-2.4,3.4-3.2c1.4-0.8,3.1-1.2,4.8-1.2
			c1.7,0,3.1,0.3,4.4,1C493.9,486.3,495,487.2,495.8,488.4z"/>
		<path class="st1" d="M506,484.6c1.6,0,3,0.4,4.4,1.2c1.4,0.8,2.5,1.8,3.2,3.2c0.8,1.3,1.2,2.8,1.2,4.3c0,1.6-0.4,3-1.2,4.4
			c-0.8,1.4-1.8,2.4-3.2,3.2c-1.3,0.8-2.8,1.2-4.4,1.2c-2.4,0-4.4-0.8-6.1-2.5c-1.7-1.7-2.5-3.7-2.5-6.2c0-2.6,1-4.8,2.9-6.5
			C501.9,485.4,503.8,484.6,506,484.6z M506.1,488.6c-1.3,0-2.4,0.5-3.2,1.4c-0.9,0.9-1.3,2.1-1.3,3.5c0,1.4,0.4,2.6,1.3,3.5
			c0.9,0.9,1.9,1.3,3.2,1.3c1.3,0,2.4-0.5,3.3-1.4c0.9-0.9,1.3-2.1,1.3-3.5c0-1.4-0.4-2.6-1.3-3.5
			C508.5,489,507.4,488.6,506.1,488.6z"/>
		<path class="st1" d="M518.2,485.1h4.2v1.9c0.7-0.8,1.5-1.4,2.4-1.8c0.9-0.4,1.8-0.6,2.8-0.6c1,0,2,0.3,2.8,0.8
			c0.8,0.5,1.5,1.3,2,2.2c0.7-1,1.5-1.7,2.4-2.2c1-0.5,2-0.8,3.2-0.8c1.2,0,2.2,0.3,3.1,0.8c0.9,0.5,1.5,1.3,1.9,2.1
			c0.4,0.9,0.6,2.3,0.6,4.3v9.7h-4.2v-8.4c0-1.9-0.2-3.2-0.7-3.8c-0.5-0.7-1.2-1-2.1-1c-0.7,0-1.4,0.2-1.9,0.6c-0.6,0.4-1,1-1.3,1.7
			c-0.3,0.7-0.4,1.9-0.4,3.5v7.5h-4.2v-8c0-1.5-0.1-2.6-0.3-3.2c-0.2-0.7-0.6-1.2-1-1.5c-0.4-0.3-1-0.5-1.6-0.5
			c-0.7,0-1.3,0.2-1.9,0.6c-0.6,0.4-1,1-1.3,1.7c-0.3,0.7-0.4,1.9-0.4,3.5v7.4h-4.2V485.1z"/>
	</g>
	<g>
		<polygon class="st1" points="235.3,461.1 235.3,457.2 544,457.2 544,461.1 235.3,461.1 		"/>
	</g>
	<g>
		<rect x="109.8" y="489.1" class="st0" width="13.5" height="13.5"/>
		<rect x="128.7" y="489.1" class="st1" width="13.5" height="13.5"/>
		<rect x="109.8" y="507.5" class="st1" width="13.5" height="13.5"/>
		<rect x="128.7" y="507.5" class="st0" width="13.5" height="13.5"/>
		<polygon class="st0" points="127.4,468.6 185.7,507.4 224.2,507.4 127.4,442.2 30.5,507.8 69.1,507.8 		"/>
		<polygon class="st1" points="176.3,413.5 176.3,376.2 163,368.3 149.7,376.2 149.7,447.6 195.5,478.9 195.5,426.7 		"/>
		<polygon class="st1" points="78,377.1 78,414.4 58.9,427.6 58.9,480.6 104.6,449.4 104.6,377.1 91.3,369.1 		"/>
		<g>
			<polygon class="st0" points="108.1,394.7 108.1,417.7 127.2,408.9 146.5,416.6 146.5,393.5 127.3,385.9 			"/>
			<polygon class="st0" points="108.1,366 108.1,389 127.2,380.2 146.5,387.9 146.5,364.9 127.3,357.2 			"/>
			<polygon class="st0" points="108.1,423.4 108.1,447 123.5,436.5 127.4,433.8 131.3,436.5 146.5,446.9 146.5,422.2 127.3,414.5 
							"/>
			<polygon class="st0" points="127.3,323.1 108.1,336.3 108.1,360.3 127.2,351.5 146.5,359.2 146.5,336.3 			"/>
		</g>
	</g>
</g>
</svg>
