<?xml version="1.0" encoding="utf-8"?>
<!-- Generator: Adobe Illustrator 19.0.0, SVG Export Plug-In . SVG Version: 6.00 Build 0)  -->
<svg version="1.1" id="Capa_1" xmlns="http://www.w3.org/2000/svg" xmlns:xlink="http://www.w3.org/1999/xlink" x="0px" y="0px"
	 viewBox="-247 358.9 100 100.9" style="enable-background:new -247 358.9 100 100.9;" xml:space="preserve">
<style type="text/css">
	.st0{fill:#FFFFFF;}
</style>
<g>
	<g>
		<path class="st0" d="M-167.5,424c-1.9-1.9-4.5-3-7.2-3c-1.3,0-2.6,0.2-3.7,0.7l-4-4c-0.4-0.4-0.8-0.7-1.3-0.9
			c10.2-12.8,9.4-31.6-2.5-43.4c-12.7-12.7-33.5-12.7-46.2,0c-12.7,12.7-12.7,33.5,0,46.2c6.4,6.4,14.7,9.6,23.1,9.6
			c7.2,0,14.4-2.4,20.3-7.1c0.2,0.5,0.5,0.9,0.9,1.3l4,4c-1.4,3.6-0.7,8,2.3,10.9l12.6,12.5c2,2,4.6,3,7.2,3c2.6,0,5.2-1,7.2-3
			c0,0,0,0,0,0c4-4,4-10.4,0-14.4L-167.5,424z M-194.2,411.7c-4.2,4.2-9.6,6.2-15.1,6.2s-10.9-2.1-15.1-6.2
			c-8.3-8.3-8.3-21.8,0-30.2c4.2-4.2,9.6-6.2,15.1-6.2c5.5,0,10.9,2.1,15.1,6.2C-185.9,389.8-185.9,403.3-194.2,411.7z"/>
		<path class="st0" d="M-201.4,385.1c-1,1-1,2.6,0,3.5c2.1,2.1,3.2,4.8,3.2,7.8c0,2.9-1.1,5.7-3.2,7.8c-1,1-1,2.6,0,3.5
			c0.5,0.5,1.1,0.7,1.8,0.7s1.3-0.2,1.8-0.7c3-3,4.7-7,4.7-11.3c0-4.3-1.7-8.3-4.7-11.3C-198.9,384.2-200.4,384.2-201.4,385.1z"/>
	</g>
</g>
</svg>
