<?xml version="1.0" encoding="utf-8"?>
<!-- Generator: Adobe Illustrator 19.0.0, SVG Export Plug-In . SVG Version: 6.00 Build 0)  -->
<svg version="1.1" id="Capa_1" xmlns="http://www.w3.org/2000/svg" xmlns:xlink="http://www.w3.org/1999/xlink" x="0px" y="0px"
	 viewBox="-247 358.9 100 105.9" style="enable-background:new -247 358.9 100 105.9;" xml:space="preserve">
<style type="text/css">
	.st0{fill:#FFFFFF;}
</style>
<g>
	<path class="st0" d="M-190.6,386.8l-3.6,3.6l5.2,5.2l3.6-3.6L-190.6,386.8z M-180.1,397.3l-3.6,3.6l5.2,5.2l3.6-3.6L-180.1,397.3z
		 M-183.6,358.9l10.9,10.9c-3.5,4.1-3.4,10.3,0.5,14.2c3.9,3.9,10.1,4.1,14.2,0.5l10.9,10.9l-17.5,17.5l-5.2-5.2l-3.6,3.6l5.2,5.2
		l-42.4,42.4l-11-11c2.8-4.1,2.4-9.7-1.2-13.3c-3.6-3.6-9.2-4-13.3-1.2l-11-11l42.4-42.4l5.1,5.1l3.6-3.6l-5.1-5.1L-183.6,358.9z"/>
</g>
</svg>
